<svg width="153" height="48" viewBox="0 0 153 48" fill="none" xmlns="http://www.w3.org/2000/svg">
<path d="M63.1616 42.5519C62.9867 43.2952 62.6205 43.8754 62.0583 44.2878C61.4985 44.7003 60.8174 44.9076 60.022 44.9076C59.4692 44.9076 58.991 44.8191 58.5828 44.6467C58.1746 44.4743 57.8317 44.2343 57.5565 43.929C57.2812 43.6214 57.0783 43.2626 56.9453 42.8502C56.8124 42.4378 56.7471 41.9927 56.7471 41.5127V37.3815C56.7471 36.9644 56.8124 36.5543 56.9453 36.1582C57.0783 35.7598 57.2789 35.4079 57.5495 35.1027C57.8201 34.7951 58.1606 34.5504 58.5688 34.3687C58.977 34.1846 59.4622 34.0938 60.0243 34.0938C60.8804 34.0938 61.5778 34.3198 62.1143 34.7671C62.6508 35.2168 63.0053 35.7761 63.178 36.4495L61.5078 36.9994C61.4775 36.8456 61.4262 36.6988 61.3539 36.5543C61.2816 36.4122 61.1859 36.2817 61.0623 36.1652C60.941 36.0487 60.7917 35.9532 60.6191 35.8832C60.4465 35.811 60.2459 35.7761 60.022 35.7761C59.7561 35.7761 59.5298 35.8227 59.3409 35.9135C59.1519 36.0044 58.9957 36.1256 58.8744 36.2724C58.7531 36.4192 58.6598 36.5869 58.5991 36.7687C58.5385 36.9528 58.5082 37.1345 58.5082 37.3186V41.557C58.5082 41.7807 58.5385 41.995 58.5991 42.2001C58.6598 42.4051 58.7554 42.5822 58.8814 42.736C59.0097 42.8898 59.1659 43.0086 59.3549 43.0948C59.5438 43.1811 59.7654 43.2253 60.022 43.2253C60.3999 43.2253 60.7218 43.1181 60.9877 42.9038C61.2536 42.6894 61.4215 42.3935 61.4938 42.016L63.1616 42.5519Z" fill="#155794"/>
<path d="M65.4727 44.8168V34.1683H67.2034V41.2984C67.2127 41.2984 67.2221 41.3007 67.2267 41.3054C67.2314 41.31 67.2384 41.3124 67.2501 41.3124C67.4857 40.8743 67.7073 40.4339 67.9172 39.9959C68.1271 39.5578 68.337 39.1174 68.554 38.6817C68.9412 37.9268 69.3261 37.1765 69.7016 36.4309C70.0795 35.6852 70.4573 34.9303 70.8352 34.166H72.4587V44.8145H70.7116V37.8685H70.6813C70.5087 38.204 70.3337 38.5466 70.1611 38.8937C69.9885 39.2409 69.8136 39.5835 69.641 39.919L67.1288 44.8145H65.4727V44.8168Z" fill="#155794"/>
<path d="M76.973 43.1951H78.4425C78.9837 43.1951 79.3732 43.0506 79.6158 42.7593C79.8561 42.4681 79.975 42.0743 79.975 41.5733C79.975 41.0933 79.8561 40.7135 79.6158 40.4339C79.3755 40.1543 78.979 40.0122 78.4285 40.0122H76.973V43.1951ZM76.973 38.3904H78.5055C79.0676 38.3904 79.5505 38.4697 79.954 38.6281C80.3575 38.7866 80.6911 39.0033 80.957 39.2782C81.2229 39.5532 81.4189 39.8817 81.5472 40.2638C81.6755 40.646 81.7384 41.0677 81.7384 41.5267C81.7384 42.6172 81.4492 43.4397 80.873 43.9896C80.2969 44.5395 79.5108 44.8145 78.5218 44.8145H75.2119V34.166H80.88V35.7877H76.9753V38.3904H76.973Z" fill="#155794"/>
<path d="M84.0166 44.8168V34.1683H85.7474V41.2984C85.7567 41.2984 85.766 41.3007 85.7707 41.3054C85.7754 41.31 85.7824 41.3124 85.794 41.3124C86.0296 40.8743 86.2512 40.4339 86.4611 39.9959C86.6711 39.5578 86.8833 39.1174 87.0956 38.6817C87.4851 37.9268 87.8677 37.1765 88.2455 36.4309C88.6234 35.6852 89.0013 34.9303 89.3792 34.166H91.0026V44.8145H89.2555V37.8685H89.2252C89.0526 38.204 88.8777 38.5466 88.7051 38.8937C88.5324 39.2409 88.3575 39.5835 88.1849 39.919L85.6727 44.8145H84.0166V44.8168Z" fill="#155794"/>
<path d="M98.5935 37.4188C98.5935 36.8898 98.4652 36.4867 98.2109 36.2071C97.9567 35.9275 97.5671 35.7877 97.047 35.7877H95.5914V39.0778H97.0633C97.5835 39.0778 97.9683 38.9287 98.2202 38.6281C98.4698 38.3298 98.5935 37.9267 98.5935 37.4188ZM100.327 37.4584C100.327 37.9174 100.261 38.3461 100.128 38.7446C99.9953 39.143 99.7994 39.4902 99.5381 39.7861C99.2792 40.0821 98.948 40.3151 98.5491 40.4828C98.1503 40.6506 97.6861 40.7368 97.1566 40.7368H95.5938V44.8214H93.8467V34.173H97.0633C97.5648 34.173 98.0126 34.2382 98.4115 34.371C98.8104 34.5038 99.1509 34.7066 99.4378 34.9745C99.7247 35.2448 99.944 35.585 100.096 35.9998C100.25 36.4098 100.327 36.8968 100.327 37.4584Z" fill="#155794"/>
<path d="M107.262 41.5733C107.262 41.084 107.143 40.7019 106.902 40.4269C106.662 40.152 106.266 40.0122 105.715 40.0122H104.243V43.1951H105.729C106.261 43.1951 106.648 43.0459 106.893 42.75C107.14 42.4564 107.262 42.0626 107.262 41.5733ZM109.023 41.5197C109.023 42.6032 108.733 43.4234 108.157 43.9803C107.581 44.5372 106.79 44.8168 105.79 44.8168H102.496V34.1683H104.257V38.3601H105.79C106.352 38.3601 106.832 38.4394 107.238 38.5978C107.642 38.7563 107.975 38.973 108.241 39.2479C108.507 39.5252 108.703 39.8561 108.831 40.2452C108.96 40.6343 109.023 41.0607 109.023 41.5197Z" fill="#155794"/>
<path d="M30.6992 14.0947L35.6233 44.1434C41.0955 41.1749 45.2544 36.1722 47.0552 30.1769L31.4713 13.7312C31.2357 13.8873 30.9745 14.0038 30.6992 14.0947Z" fill="#155794"/>
<path d="M29.7426 7.8966C31.0675 7.92456 32.1871 8.72843 32.6676 9.85852L41.8369 7.72417C37.7596 3.30168 31.9982 0.405391 25.5439 0.00927734L28.9285 7.99446C29.1921 7.93155 29.4603 7.89193 29.7426 7.8966Z" fill="#155794"/>
<path d="M32.3574 12.8714L47.743 27.1804C47.932 25.9874 48.0323 24.7641 48.0323 23.5199C48.0323 18.4659 46.4041 13.7848 43.6424 9.94714L32.9126 11.2194C32.8869 11.8298 32.6863 12.3961 32.3574 12.8714Z" fill="#155794"/>
<path d="M27.6342 8.62129L22.6098 0H22.6028C16.0647 0.372813 10.2309 3.31104 6.12793 7.80111L26.5635 10.2034C26.7501 9.56964 27.128 9.0244 27.6342 8.62129Z" fill="#155794"/>
<path d="M27.2911 13.2418L0.996094 30.2328C2.79683 36.1768 6.92314 41.1422 12.3417 44.1061L27.7763 13.6682C27.599 13.5447 27.4381 13.4003 27.2911 13.2418Z" fill="#155794"/>
<path d="M28.863 14.1646L14.877 45.3061C17.6947 46.4455 20.7807 47.0769 24.0159 47.0769C27.1836 47.0769 30.2066 46.4711 32.9753 45.376L29.4998 14.2578C29.2805 14.2484 29.0683 14.2158 28.863 14.1646Z" fill="#155794"/>
<path d="M26.4583 11.4313L4.1473 10.2803C1.53949 14.041 0.00933026 18.5823 0 23.4709V23.641C0.0069977 24.9225 0.123626 26.1784 0.331224 27.404L26.6449 12.2329C26.5446 11.9789 26.491 11.7086 26.4583 11.4313Z" fill="#155794"/>
<path d="M144.659 18.5264H144.61V8.5863H140.969V25.7077H144.407L149.31 16.3851H149.336V25.7077H153V8.5863H149.688L144.659 18.5264Z" fill="#155794"/>
<path d="M126.817 11.8321H130.582V25.7077H134.221V11.8321H137.988V8.5863H126.817V11.8321Z" fill="#155794"/>
<path d="M114.462 25.7077H124.697V22.3408H118.126V18.6988H123.788V15.4251H118.126V11.8834H124.697V8.5863H114.462V25.7077Z" fill="#155794"/>
<path d="M101.105 24.0441C101.551 24.5731 102.132 24.9878 102.848 25.2977C103.564 25.6053 104.427 25.7591 105.439 25.7591C106.869 25.7591 108.084 25.3862 109.078 24.6406C110.074 23.895 110.697 22.8674 110.949 21.5533L107.462 20.5793C107.394 21.1315 107.168 21.5649 106.78 21.8795C106.393 22.1987 105.945 22.3548 105.439 22.3548C104.714 22.3548 104.205 22.1451 103.911 21.7257C103.617 21.304 103.468 20.7657 103.468 20.1203V13.8407C103.468 13.6473 103.501 13.4399 103.568 13.2232C103.636 13.0019 103.743 12.7992 103.897 12.6128C104.049 12.4287 104.252 12.2726 104.504 12.1491C104.756 12.0279 105.068 11.9697 105.439 11.9697C105.791 11.9697 106.097 12.0349 106.349 12.1654C106.601 12.2935 106.813 12.4497 106.981 12.6267C107.149 12.8085 107.27 13.0042 107.347 13.2256C107.424 13.4446 107.478 13.6357 107.511 13.7964L110.972 12.7968C110.855 12.2469 110.652 11.7157 110.368 11.2054C110.081 10.6951 109.71 10.2431 109.255 9.85627C108.8 9.46715 108.255 9.15492 107.613 8.92191C106.972 8.68657 106.249 8.57007 105.439 8.57007C104.411 8.57007 103.538 8.7355 102.824 9.06638C102.108 9.39958 101.525 9.82365 101.082 10.3456C100.634 10.8652 100.31 11.4431 100.107 12.0862C99.904 12.7246 99.8037 13.3607 99.8037 13.9945V20.0271C99.8037 20.789 99.9087 21.5183 100.121 22.215C100.329 22.9047 100.657 23.5152 101.105 24.0441Z" fill="#155794"/>
<path d="M86.8514 24.0441C87.2969 24.5731 87.8777 24.9878 88.5938 25.2977C89.3099 25.6053 90.173 25.7591 91.1853 25.7591C92.6175 25.7591 93.8304 25.3862 94.8241 24.6406C95.8178 23.895 96.4429 22.8674 96.6948 21.5533L93.2076 20.5793C93.14 21.1315 92.9137 21.5649 92.5242 21.8795C92.137 22.1987 91.6891 22.3548 91.1853 22.3548C90.4622 22.3548 89.949 22.1451 89.6574 21.7257C89.3612 21.304 89.2166 20.7657 89.2166 20.1203V13.8407C89.2166 13.6473 89.2493 13.4399 89.3169 13.2232C89.3845 13.0019 89.4942 12.7992 89.6458 12.6128C89.7974 12.4287 90.0003 12.2726 90.2523 12.1491C90.5042 12.0279 90.8167 11.9697 91.1876 11.9697C91.5422 11.9697 91.8454 12.0349 92.0973 12.1654C92.3492 12.2935 92.5615 12.4497 92.7294 12.6267C92.8974 12.8085 93.0187 13.0042 93.0956 13.2256C93.1703 13.4446 93.2263 13.6357 93.2613 13.7964L96.7228 12.7968C96.6062 12.2469 96.4032 11.7157 96.1163 11.2054C95.8294 10.6951 95.4585 10.2431 95.0037 9.85627C94.5488 9.46715 94.0007 9.15492 93.3616 8.92191C92.7201 8.68657 91.997 8.57007 91.1876 8.57007C90.159 8.57007 89.2866 8.7355 88.5705 9.06638C87.8544 9.39958 87.2736 9.82365 86.8257 10.3456C86.3802 10.8652 86.0536 11.4431 85.853 12.0862C85.6524 12.7246 85.5498 13.3607 85.5498 13.9945V20.0271C85.5498 20.789 85.6548 21.5183 85.867 22.215C86.0746 22.9047 86.4035 23.5152 86.8514 24.0441Z" fill="#155794"/>
<path d="M74.379 13.7871C74.379 13.5914 74.4164 13.3817 74.4933 13.1626C74.5703 12.9413 74.6869 12.7386 74.8479 12.5498C75.0088 12.3634 75.2141 12.2073 75.466 12.0815C75.7179 11.9603 76.0305 11.8997 76.4014 11.8997C76.7723 11.8997 77.0801 11.9696 77.3251 12.1071C77.5677 12.2446 77.7659 12.4124 77.9175 12.6081C78.0692 12.8038 78.1741 13.0089 78.2324 13.2209C78.2908 13.4353 78.3211 13.6263 78.3211 13.7848V20.5303C78.3211 21.1012 78.1321 21.5509 77.7519 21.8795C77.374 22.2057 76.9215 22.3688 76.399 22.3688C75.6736 22.3688 75.1581 22.1567 74.8456 21.7327C74.533 21.3063 74.3767 20.7657 74.3767 20.1133V13.7871H74.379ZM72.0535 24.0767C72.5083 24.6103 73.0915 25.0274 73.8099 25.3396C74.526 25.6519 75.389 25.8056 76.4014 25.8056C77.2271 25.8056 77.9829 25.6775 78.664 25.4235C79.3474 25.1695 79.9352 24.8014 80.4344 24.3191C80.9312 23.8367 81.3184 23.2565 81.596 22.5762C81.8736 21.8981 82.0135 21.1338 82.0135 20.2834V13.9362C82.0135 13.2652 81.8992 12.6034 81.6706 11.9487C81.442 11.2962 81.1015 10.7114 80.6466 10.1941C80.1918 9.67917 79.6086 9.26209 78.9042 8.9452C78.1951 8.62597 77.3624 8.46753 76.4014 8.46753C75.3727 8.46753 74.5003 8.63297 73.7866 8.9685C73.0705 9.30403 72.485 9.73043 72.0301 10.257C71.5753 10.779 71.2464 11.3661 71.0435 12.0116C70.8429 12.657 70.7402 13.3001 70.7402 13.9386V20.0201C70.7402 20.7913 70.8452 21.5253 71.0575 22.229C71.2674 22.928 71.5986 23.5455 72.0535 24.0767Z" fill="#155794"/>
<path d="M60.4535 11.8857H62.3732C63.0147 11.8857 63.5185 12.0441 63.8894 12.3634C64.2603 12.6826 64.4445 13.2138 64.4445 13.9525C64.4445 14.7564 64.2393 15.3202 63.8264 15.6488C63.4135 15.9773 62.9354 16.1404 62.3989 16.1404H60.4535V11.8857ZM60.4535 19.4608H62.5761C63.4182 19.4608 64.1763 19.3303 64.8504 19.067C65.5245 18.8037 66.096 18.4355 66.5695 17.9602C67.0407 17.4849 67.4022 16.9093 67.6565 16.2383C67.9107 15.5672 68.0367 14.8216 68.0367 13.9991C68.0367 13.0624 67.8967 12.2562 67.6192 11.5758C67.3416 10.8954 66.952 10.3339 66.4575 9.89115C65.9607 9.44843 65.3612 9.12222 64.6615 8.90785C63.9617 8.69349 63.1989 8.5863 62.3732 8.5863H56.7891V25.7077H60.4535V19.4608Z" fill="#155794"/>
</svg>
